<svg xmlns="http://www.w3.org/2000/svg" width="40.006" height="40.006" viewBox="0 0 40.006 40.006">
  <g id="Group_1" data-name="Group 1" transform="translate(-561 -516)">
    <path id="Path_11" data-name="Path 11" d="M20,40.006A20,20,0,1,0,0,20,20,20,0,0,0,20,40.006Z" transform="translate(561 516)" fill="#ffd500"/>
    <path id="Path_12" data-name="Path 12" d="M24.055,15.845l-.979,2.521a3.673,3.673,0,0,1,1.67,3.139,3.563,3.563,0,1,1-3.69-3.7l.918-2.56a6.122,6.122,0,0,0-7.107,6.061v6.428h2.783V26.715A6.511,6.511,0,0,0,21.2,27.728a6.267,6.267,0,0,0,2.844-11.894Z" transform="translate(561 516)"/>
    <path id="Path_13" data-name="Path 13" d="M14.855,15.539a8.632,8.632,0,0,1,2.783-1.9V9.612H14.855Z" transform="translate(561 516)"/>
  </g>
</svg>
